<svg version="1.1" xmlns="http://www.w3.org/2000/svg" xmlns:xlink="http://www.w3.org/1999/xlink" viewBox="0 0 172 172"><g transform="translate(6.02,6.02) scale(0.93,0.93)"><g fill="none" fill-rule="nonzero" stroke="none" stroke-width="1" stroke-linecap="butt" stroke-linejoin="miter" stroke-miterlimit="10" stroke-dasharray="" stroke-dashoffset="0" font-family="none" font-weight="none" font-size="none" text-anchor="none" style="mix-blend-mode: normal"><path d="M0,172v-172h172v172z" fill="none" stroke="none"></path><g fill="#ffffff" stroke="none"><path d="M21.5,21.5v129h69.875v-0.77685c7.34896,13.24783 21.47962,22.27685 37.625,22.27685c23.65,0 43,-19.35 43,-43c0,-15.82196 -8.68549,-29.68604 -21.5,-37.15259v-48.84741h-66.55761l-10.75,-21.5zM32.25,32.25h34.30761l10.75,21.5h62.44239v33.67773c-3.44392,-0.89629 -7.03564,-1.42773 -10.75,-1.42773c-23.65,0 -43,19.35 -43,43c0,3.71436 0.53145,7.30608 1.42773,10.75h-55.17773zM129,96.75c17.7375,0 32.25,14.5125 32.25,32.25c0,17.7375 -14.5125,32.25 -32.25,32.25c-17.7375,0 -32.25,-14.5125 -32.25,-32.25c0,-17.7375 14.5125,-32.25 32.25,-32.25zM116.6333,109.1167l-7.5166,7.5166l12.3562,12.3667l-12.3562,12.3667l7.5166,7.5166l12.3667,-12.3562l12.3667,12.3562l7.5166,-7.5166l-12.3562,-12.3667l12.3562,-12.3667l-7.5166,-7.5166l-12.3667,12.3562z"></path></g></g></g></svg>