<svg version="1.1" xmlns="http://www.w3.org/2000/svg" xmlns:xlink="http://www.w3.org/1999/xlink" viewBox="0 0 172 172"><g transform="translate(6.02,6.02) scale(0.93,0.93)"><g fill="none" fill-rule="nonzero" stroke="none" stroke-width="1" stroke-linecap="butt" stroke-linejoin="miter" stroke-miterlimit="10" stroke-dasharray="" stroke-dashoffset="0" font-family="none" font-weight="none" font-size="none" text-anchor="none" style="mix-blend-mode: normal"><path d="M0,172v-172h172v172z" fill="none"></path><g fill="#ffffff"><path d="M21.5,21.5v10.75v32.25h10.75v-32.25h32.25v-10.75h-32.25zM107.5,21.5v10.75h32.25v32.25h10.75v-32.25v-10.75h-10.75zM86,80.625c-2.96853,0 -5.375,2.40647 -5.375,5.375c0,2.96853 2.40647,5.375 5.375,5.375c2.96853,0 5.375,-2.40647 5.375,-5.375c0,-2.96853 -2.40647,-5.375 -5.375,-5.375zM21.5,107.5v32.25v10.75h43v-10.75h-32.25v-32.25zM139.75,107.5v32.25h-32.25v10.75h32.25h10.75v-10.75v-32.25z"></path></g></g></g></svg>