<svg version="1.1" xmlns="http://www.w3.org/2000/svg" xmlns:xlink="http://www.w3.org/1999/xlink" viewBox="0 0 172 172"><g transform="translate(6.02,6.02) scale(0.93,0.93)"><g fill="none" fill-rule="nonzero" stroke="none" stroke-width="1" stroke-linecap="butt" stroke-linejoin="miter" stroke-miterlimit="10" stroke-dasharray="" stroke-dashoffset="0" font-family="none" font-weight="none" font-size="none" text-anchor="none" style="mix-blend-mode: normal"><path d="M0,172v-172h172v172z" fill="none"></path><g fill="#ffffff"><path d="M48.375,13.94141v137.39844l8.90234,-7.39062l21.66797,-18.14062l10.91797,21.66797l2.35156,4.87109l4.87109,-2.51953l16.62891,-8.56641l4.70313,-2.35156l-2.35156,-4.87109l-9.91016,-19.48437l27.21094,-3.35937l10.91797,-1.34375l-7.72656,-7.72656l-78.94531,-79.11328zM59.125,39.97656l62.14844,61.98047l-24.1875,2.85547l-7.55859,1.00781l3.52734,6.88672l11.08594,21.5l-7.05469,3.69531l-11.58984,-23.17969l-3.19141,-6.04687l-5.20703,4.36719l-17.97266,15.11719z"></path></g></g></g></svg>