<svg version="1.1" xmlns="http://www.w3.org/2000/svg" xmlns:xlink="http://www.w3.org/1999/xlink" viewBox="0 0 172 172"><g transform="translate(6.02,6.02) scale(0.93,0.93)"><g fill="none" fill-rule="nonzero" stroke="none" stroke-width="1" stroke-linecap="butt" stroke-linejoin="miter" stroke-miterlimit="10" stroke-dasharray="" stroke-dashoffset="0" font-family="none" font-weight="none" font-size="none" text-anchor="none" style="mix-blend-mode: normal"><path d="M0,172v-172h172v172z" fill="none"></path><g fill="#ffffff"><path d="M21.5,21.5v10.75h10.75v-10.75zM43,21.5v10.75h10.75v-10.75zM64.5,21.5v10.75h10.75v-10.75zM86,21.5v10.75h10.75v-10.75zM107.5,21.5v10.75h10.75v-10.75zM129,21.5v10.75h10.75v-10.75zM21.5,43v10.75h10.75v-10.75zM129,43v10.75h10.75v-10.75zM21.5,64.5v10.75h10.75v-10.75zM129,64.5v10.75h10.75v-10.75zM77.9375,69.875l-1.67969,2.18359l-6.38281,8.56641h-26.875v69.875h107.5v-69.875h-26.875l-6.38281,-8.56641l-1.67969,-2.18359zM83.3125,80.625h26.875l6.38281,8.56641l1.67969,2.18359h21.5v48.375h-86v-48.375h21.5l1.67969,-2.18359zM21.5,86v10.75h10.75v-10.75zM96.75,91.375c-11.8208,0 -21.5,9.6792 -21.5,21.5c0,11.8208 9.6792,21.5 21.5,21.5c11.8208,0 21.5,-9.6792 21.5,-21.5c0,-11.8208 -9.6792,-21.5 -21.5,-21.5zM96.75,102.125c6.00489,0 10.75,4.74512 10.75,10.75c0,6.00489 -4.74511,10.75 -10.75,10.75c-6.00488,0 -10.75,-4.74511 -10.75,-10.75c0,-6.00488 4.74512,-10.75 10.75,-10.75zM21.5,107.5v10.75h10.75v-10.75z"></path></g></g></g></svg>