<svg version="1.1" xmlns="http://www.w3.org/2000/svg" xmlns:xlink="http://www.w3.org/1999/xlink" viewBox="0 0 172 172"><g transform="translate(6.02,6.02) scale(0.93,0.93)"><g fill="none" fill-rule="nonzero" stroke="none" stroke-width="1" stroke-linecap="butt" stroke-linejoin="miter" stroke-miterlimit="10" stroke-dasharray="" stroke-dashoffset="0" font-family="none" font-weight="none" font-size="none" text-anchor="none" style="mix-blend-mode: normal"><path d="M0,172v-172h172v172z" fill="none"></path><g fill="#ffffff"><path d="M21.5,26.875v118.25h70.21094l-3.69531,18.64453l-1.67969,7.89453l7.89453,-1.67969l18.98047,-3.69531l1.67969,-0.33594l52.40625,-52.40625c6.23584,-6.23584 6.23584,-16.60791 0,-22.84375c-3.12842,-3.12842 -7.28565,-4.70312 -11.42187,-4.70312c-1.84766,0 -3.61133,0.37793 -5.375,1.00781v-60.13281zM32.25,37.625h107.5v10.75h-107.5zM32.25,59.125h107.5v36.28125l-38.96875,38.96875h-68.53125zM48.375,75.25v10.75h10.75v-10.75zM69.875,75.25v10.75h53.75v-10.75zM48.375,96.75v10.75h10.75v-10.75zM69.875,96.75v10.75h32.25v-10.75zM155.875,96.75c1.36474,0 2.79248,0.44092 3.86328,1.51172c2.1416,2.1416 2.1416,5.41699 0,7.55859l-50.22266,50.22266l-9.57422,2.01563l2.01563,-9.57422l50.22266,-50.22266c1.0708,-1.0708 2.33057,-1.51172 3.69531,-1.51172z"></path></g></g></g></svg>