<svg version="1.1" xmlns="http://www.w3.org/2000/svg" xmlns:xlink="http://www.w3.org/1999/xlink" viewBox="0 0 172 172"><g transform="translate(6.02,6.02) scale(0.93,0.93)"><g fill="none" fill-rule="nonzero" stroke="none" stroke-width="1" stroke-linecap="butt" stroke-linejoin="miter" stroke-miterlimit="10" stroke-dasharray="" stroke-dashoffset="0" font-family="none" font-weight="none" font-size="none" text-anchor="none" style="mix-blend-mode: normal"><path d="M0,172v-172h172v172z" fill="none"></path><g fill="#ffffff"><path d="M116.90625,21.5c-8.98633,0 -17.51074,3.54834 -23.85156,9.91016l-7.89453,7.89453c-6.36182,6.36182 -9.91016,14.86523 -9.91016,23.85156c0,4.26221 0.81885,8.41943 2.35156,12.26172l8.73438,-8.73437c-1.0918,-6.9707 1.02881,-14.46631 6.38281,-19.82031l7.89453,-7.89453c4.3252,-4.32519 10.1831,-6.71875 16.29297,-6.71875c6.10986,0 11.79981,2.39356 16.125,6.71875c8.92334,8.92334 8.92334,23.49463 0,32.41797l-7.89453,7.89453c-4.32519,4.3252 -10.1831,6.71875 -16.29297,6.71875c-1.19678,0 -2.37256,-0.12597 -3.52734,-0.33594l-8.73437,8.73438c3.84229,1.53271 7.99951,2.35156 12.26172,2.35156c8.98633,0 17.51074,-3.54834 23.85156,-9.91016l7.89453,-7.89453c6.36182,-6.36182 9.91016,-14.86523 9.91016,-23.85156c0,-8.98633 -3.54834,-17.32178 -9.91016,-23.68359c-6.34082,-6.36182 -14.69727,-9.91016 -23.68359,-9.91016zM103.63672,60.63672l-43,43l7.72656,7.72656l43,-43zM63.15625,75.25c-8.98633,0 -17.51074,3.54834 -23.85156,9.91016l-7.89453,7.89453c-6.36182,6.36182 -9.91016,14.86523 -9.91016,23.85156c0,8.98633 3.54834,17.32178 9.91016,23.68359c6.34082,6.36182 14.69727,9.91016 23.68359,9.91016c8.98633,0 17.51074,-3.54834 23.85156,-9.91016l7.89453,-7.89453c6.36182,-6.36182 9.91016,-14.86523 9.91016,-23.85156c0,-4.26221 -0.81885,-8.41943 -2.35156,-12.26172l-8.73437,8.73438c1.0918,6.9707 -1.02881,14.46631 -6.38281,19.82031l-7.89453,7.89453c-4.32519,4.3252 -10.1831,6.71875 -16.29297,6.71875c-6.10986,0 -11.7998,-2.39355 -16.125,-6.71875c-8.92334,-8.92334 -8.92334,-23.49463 0,-32.41797l7.89453,-7.89453c4.3252,-4.32519 10.1831,-6.71875 16.29297,-6.71875c1.19678,0 2.37256,0.12598 3.52734,0.33594l8.73438,-8.73437c-3.84229,-1.53271 -7.99951,-2.35156 -12.26172,-2.35156z"></path></g></g></g></svg>