<svg version="1.1" xmlns="http://www.w3.org/2000/svg" xmlns:xlink="http://www.w3.org/1999/xlink" viewBox="0 0 172 172"><g transform="translate(6.02,6.02) scale(0.93,0.93)"><g fill="none" fill-rule="nonzero" stroke="none" stroke-width="1" stroke-linecap="butt" stroke-linejoin="miter" stroke-miterlimit="10" stroke-dasharray="" stroke-dashoffset="0" font-family="none" font-weight="none" font-size="none" text-anchor="none" style="mix-blend-mode: normal"><path d="M0,172v-172h172v172z" fill="none"></path><g fill="#ffffff"><path d="M86,16.125c-8.90234,0 -16.125,7.22266 -16.125,16.125c0,8.90234 7.22266,16.125 16.125,16.125c8.90234,0 16.125,-7.22266 16.125,-16.125c0,-8.90234 -7.22266,-16.125 -16.125,-16.125zM48.03906,34.60156c-7.41162,0 -13.4375,6.02588 -13.4375,13.4375c0,7.41162 6.02588,13.4375 13.4375,13.4375c7.41162,0 13.4375,-6.02588 13.4375,-13.4375c0,-7.41162 -6.02588,-13.4375 -13.4375,-13.4375zM123.96094,42.66406c-2.96045,0 -5.375,2.41455 -5.375,5.375c0,2.96045 2.41455,5.375 5.375,5.375c2.96045,0 5.375,-2.41455 5.375,-5.375c0,-2.96045 -2.41455,-5.375 -5.375,-5.375zM32.25,73.90625c-6.67676,0 -12.09375,5.41699 -12.09375,12.09375c0,6.67676 5.41699,12.09375 12.09375,12.09375c6.67676,0 12.09375,-5.41699 12.09375,-12.09375c0,-6.67676 -5.41699,-12.09375 -12.09375,-12.09375zM139.75,79.28125c-3.71631,0 -6.71875,3.00244 -6.71875,6.71875c0,3.71631 3.00244,6.71875 6.71875,6.71875c3.71631,0 6.71875,-3.00244 6.71875,-6.71875c0,-3.71631 -3.00244,-6.71875 -6.71875,-6.71875zM48.03906,113.21094c-5.9419,0 -10.75,4.8081 -10.75,10.75c0,5.9419 4.8081,10.75 10.75,10.75c5.9419,0 10.75,-4.8081 10.75,-10.75c0,-5.9419 -4.8081,-10.75 -10.75,-10.75zM123.96094,115.89844c-4.45117,0 -8.0625,3.61133 -8.0625,8.0625c0,4.45117 3.61133,8.0625 8.0625,8.0625c4.45117,0 8.0625,-3.61133 8.0625,-8.0625c0,-4.45117 -3.61133,-8.0625 -8.0625,-8.0625zM86,130.34375c-5.18604,0 -9.40625,4.22021 -9.40625,9.40625c0,5.18604 4.22021,9.40625 9.40625,9.40625c5.18604,0 9.40625,-4.22021 9.40625,-9.40625c0,-5.18604 -4.22021,-9.40625 -9.40625,-9.40625z"></path></g></g></g></svg>