<svg version="1.1" xmlns="http://www.w3.org/2000/svg" xmlns:xlink="http://www.w3.org/1999/xlink" viewBox="0 0 172 172"><g transform="translate(6.02,6.02) scale(0.93,0.93)"><g fill="none" fill-rule="nonzero" stroke="none" stroke-width="1" stroke-linecap="butt" stroke-linejoin="miter" stroke-miterlimit="10" stroke-dasharray="" stroke-dashoffset="0" font-family="none" font-weight="none" font-size="none" text-anchor="none" style="mix-blend-mode: normal"><path d="M0,172v-172h172v172z" fill="none"></path><g fill="#ffffff"><path d="M16.125,37.625c-5.87891,0 -10.75,4.87109 -10.75,10.75v75.25c0,5.87891 4.87109,10.75 10.75,10.75h139.75c5.87891,0 10.75,-4.87109 10.75,-10.75v-75.25c0,-5.87891 -4.87109,-10.75 -10.75,-10.75zM16.125,48.375h139.75v75.25h-139.75zM26.875,59.125v10.75h10.75v-10.75zM48.375,59.125v10.75h10.75v-10.75zM69.875,59.125v10.75h10.75v-10.75zM91.375,59.125v10.75h10.75v-10.75zM112.875,59.125v10.75h10.75v-10.75zM134.375,59.125v10.75h10.75v-10.75zM26.875,80.625v10.75h21.5v-10.75zM59.125,80.625v10.75h10.75v-10.75zM80.625,80.625v10.75h10.75v-10.75zM102.125,80.625v10.75h10.75v-10.75zM123.625,80.625v10.75h21.5v-10.75zM26.875,102.125v10.75h21.5v-10.75zM59.125,102.125v10.75h53.75v-10.75zM123.625,102.125v10.75h21.5v-10.75z"></path></g></g></g></svg>