<svg version="1.1" xmlns="http://www.w3.org/2000/svg" xmlns:xlink="http://www.w3.org/1999/xlink" viewBox="0 0 172 172"><g transform="translate(6.02,6.02) scale(0.93,0.93)"><g fill="none" fill-rule="nonzero" stroke="none" stroke-width="1" stroke-linecap="butt" stroke-linejoin="miter" stroke-miterlimit="10" stroke-dasharray="" stroke-dashoffset="0" font-family="none" font-weight="none" font-size="none" text-anchor="none" style="mix-blend-mode: normal"><path d="M0,172v-172h172v172z" fill="none" stroke="none"></path><g fill="#ffffff" stroke="none"><path d="M86,21.5c-35.55477,0 -64.5,28.94523 -64.5,64.5c0,35.55477 28.94523,64.5 64.5,64.5c35.55477,0 64.5,-28.94523 64.5,-64.5c0,-35.55477 -28.94523,-64.5 -64.5,-64.5zM86,32.25c21.00889,0 39.10885,12.00411 47.95508,29.52051l-36.5857,-0.021c-3.4678,-1.63913 -7.29633,-2.62451 -11.36938,-2.62451c-8.73226,0 -16.44682,4.28109 -21.36352,10.78149l-19.27442,-19.06445c9.84653,-11.3762 24.36818,-18.59204 40.63794,-18.59204zM41.02637,56.56348l18.20361,31.54663c1.00117,12.71176 10.92848,22.9941 23.48413,24.54443l-6.85523,26.10864c-24.86641,-4.73212 -43.60889,-26.49343 -43.60889,-52.76318c0,-10.88496 3.24135,-20.9836 8.77637,-29.43652zM136.74756,68.39477c1.90808,5.51968 3.00244,11.42673 3.00244,17.60523c0,29.74308 -24.00692,53.75 -53.75,53.75c-1.00043,0 -1.9737,-0.09335 -2.96045,-0.14697l18.23511,-31.55713c6.98888,-4.8653 11.60034,-12.93192 11.60034,-22.0459c0,-3.70924 -0.76765,-7.2447 -2.1416,-10.46655zM86,69.875c8.9842,0 16.125,7.1408 16.125,16.125c0,8.9842 -7.1408,16.125 -16.125,16.125c-8.9842,0 -16.125,-7.1408 -16.125,-16.125c0,-8.9842 7.1408,-16.125 16.125,-16.125z"></path></g><path d="" fill="none" stroke="none"></path></g></g></svg>