<svg version="1.1" xmlns="http://www.w3.org/2000/svg" xmlns:xlink="http://www.w3.org/1999/xlink" viewBox="0 0 172 172"><g transform="translate(6.02,6.02) scale(0.93,0.93)"><g fill="none" fill-rule="nonzero" stroke="none" stroke-width="1" stroke-linecap="butt" stroke-linejoin="miter" stroke-miterlimit="10" stroke-dasharray="" stroke-dashoffset="0" font-family="none" font-weight="none" font-size="none" text-anchor="none" style="mix-blend-mode: normal"><path d="M0,172v-172h172v172z" fill="none" stroke="none"></path><g id="original-icon" fill="#ffffff" stroke="none" opacity="0" visibility="hidden"><path d="M86,21.5c-35.55477,0 -64.5,28.94523 -64.5,64.5c0,35.55477 28.94523,64.5 64.5,64.5c35.55477,0 64.5,-28.94523 64.5,-64.5c0,-35.55477 -28.94523,-64.5 -64.5,-64.5zM86,32.25c21.00889,0 39.10885,12.00411 47.95508,29.52051l-36.5857,-0.021c-3.4678,-1.63913 -7.29633,-2.62451 -11.36938,-2.62451c-8.73226,0 -16.44682,4.28109 -21.36352,10.78149l-19.27442,-19.06445c9.84653,-11.3762 24.36818,-18.59204 40.63794,-18.59204zM41.02637,56.56348l18.20361,31.54663c1.00117,12.71176 10.92848,22.9941 23.48413,24.54443l-6.85523,26.10864c-24.86641,-4.73212 -43.60889,-26.49343 -43.60889,-52.76318c0,-10.88496 3.24135,-20.9836 8.77637,-29.43652zM136.74756,68.39477c1.90808,5.51968 3.00244,11.42673 3.00244,17.60523c0,29.74308 -24.00692,53.75 -53.75,53.75c-1.00043,0 -1.9737,-0.09335 -2.96045,-0.14697l18.23511,-31.55713c6.98888,-4.8653 11.60034,-12.93192 11.60034,-22.0459c0,-3.70924 -0.76765,-7.2447 -2.1416,-10.46655zM86,69.875c8.9842,0 16.125,7.1408 16.125,16.125c0,8.9842 -7.1408,16.125 -16.125,16.125c-8.9842,0 -16.125,-7.1408 -16.125,-16.125c0,-8.9842 7.1408,-16.125 16.125,-16.125z"></path></g><g id="subtracted-icon" fill="#ffffff" stroke="none"><path d="M21.5,86c0,-35.55477 28.94523,-64.5 64.5,-64.5c33.99936,0 61.95482,26.4681 64.33568,59.87359c-3.38246,-1.2375 -6.92403,-2.14482 -10.58568,-2.68295c-0.17386,-0.02555 -0.348,-0.05027 -0.5224,-0.07415c-0.50036,-3.52772 -1.34665,-6.94305 -2.48004,-10.22171l-26.01416,7.13867c0.83207,1.95115 1.44177,4.01731 1.79327,6.16743c-3.69381,1.42491 -7.19064,3.24604 -10.43842,5.41129c0.02437,-0.36727 0.03675,-0.73812 0.03675,-1.11217c0,-8.9842 -7.1408,-16.125 -16.125,-16.125c-8.9842,0 -16.125,7.1408 -16.125,16.125c0,8.9842 7.1408,16.125 16.125,16.125c0.37404,0 0.74489,-0.01238 1.11217,-0.03675c-2.16212,3.24308 -3.98111,6.7345 -5.40511,10.4224c-12.07605,-1.96119 -21.50283,-12.03061 -22.47708,-24.40055l-18.20361,-31.54663c-5.53502,8.45292 -8.77637,18.55157 -8.77637,29.43652c0,26.26975 18.74247,48.03106 43.60889,52.76318l2.28792,-8.71371c-0.02004,0.60327 -0.03014,1.20905 -0.03014,1.8172c0,6.4892 1.14985,12.70974 3.25692,18.46902c-33.40549,-2.38086 -59.87359,-30.33633 -59.87359,-64.33568zM45.36206,50.84204l19.27442,19.06445c4.9167,-6.50041 12.63126,-10.78149 21.36352,-10.78149c4.07305,0 7.90158,0.98538 11.36938,2.62451l36.5857,0.021c-8.84623,-17.5164 -26.94619,-29.52051 -47.95508,-29.52051c-16.26976,0 -30.79141,7.21584 -40.63794,18.59204z"></path></g><path d="" fill="none" stroke="none"></path><g stroke="none"><g id="Layer_1" fill="#ffffff"><path d="M131.86667,174.86667c-23.65,0 -43,-19.35 -43,-43c0,-23.65 19.35,-43 43,-43c23.65,0 43,19.35 43,43c0,23.65 -19.35,43 -43,43zM131.86667,99.61667c-17.7375,0 -32.25,14.5125 -32.25,32.25c0,17.7375 14.5125,32.25 32.25,32.25c17.7375,0 32.25,-14.5125 32.25,-32.25c0,-17.7375 -14.5125,-32.25 -32.25,-32.25zM151.75417,119.50417l-7.525,-7.525l-12.3625,12.3625l-12.3625,-12.3625l-7.525,7.525l12.3625,12.3625l-12.3625,12.3625l7.525,7.525l12.3625,-12.3625l12.3625,12.3625l7.525,-7.525l-12.3625,-12.3625z"></path></g><g id="Layer_1" fill="#000000" opacity="0"><path d="M185.61667,131.86667c0,29.68613 -24.06387,53.75 -53.75,53.75c-29.68613,0 -53.75,-24.06387 -53.75,-53.75c0,-29.68613 24.06387,-53.75 53.75,-53.75c29.68613,0 53.75,24.06387 53.75,53.75z"></path></g></g><path d="M88.86667,174.86667v-86h86v86z" id="overlay-drag" fill="#ff0000" stroke="none" opacity="0"></path></g></g></svg>